<?xml version="1.0" encoding="UTF-8"?>
<svg id="Layer_5" data-name="Layer 5" xmlns="http://www.w3.org/2000/svg" viewBox="0 0 160 160">
  <defs>
    <style>
      .cls-1 {
        fill: #fff;
      }
    </style>
  </defs>
  <g id="Generative_Object_180_0_" data-name="Generative Object (180, 0)">
    <path class="cls-1" d="M137.15,82.55l.17,2.51c.13,1.84.08,3.66-.23,5.47-.2,1.18-.62,2.22-1.25,3.23s-1.35,1.94-2.17,2.82c-.32.35-.63.67-1.01.95-.25.19-.56.13-.74-.12-.16-.22-.13-.49.09-.69l.7-.63c1.16-1.22,2.67-3.15,3.13-4.71.52-1.78.6-4.16.48-6.04l-.21-3.26c-.11-1.71.04-3.59.73-5.12.55-1.21,1.44-2.11,2.6-2.75.95-.52,1.97-.87,3.03-1.12,1.91-.44,3.85-.62,5.81-.63l1.91-.02-.2.99c-.53,2.03-1.39,3.95-2.63,5.66-.42.58-.85,1.11-1.38,1.59-1.14,1.03-2.4,1.86-3.73,2.6-.97.55-1.96,1.01-2.96,1.48-.17.08-.32.13-.51.03-.12-.06-.26-.17-.3-.36-.05-.23.03-.46.26-.57,2.19-1.01,3.92-1.87,5.87-3.38.74-.58,1.36-1.22,1.91-1.99,1.09-1.53,1.89-3.21,2.39-5.03-1.72,0-3.38.11-5.04.38-.78.13-1.51.29-2.25.53-1.64.53-3.09,1.35-3.83,2.99-.7,1.54-.74,3.4-.62,5.16Z"/>
    <path class="cls-1" d="M121.83,78.26c.55,1.91,1.28,3.64,2.53,5.23,1.17,1.49,2.74,2.55,4.54,3.09,1.53.46,3.14.56,4.75.45.32-.02.54.23.54.52,0,.31-.24.52-.57.53l-1.37.02c-1.22.02-2.4-.17-3.56-.51-3.8-1.13-6.02-3.94-7.35-7.55-.33-.89-.56-1.79-.8-2.74l.65-.03c4.79-.23,9.9.61,12.9,4.7.69.95,1.2,1.98,1.6,3.07.1.28,0,.53-.27.66-.2.1-.57.04-.67-.24-1.3-3.66-3.77-5.77-7.53-6.7-1.2-.29-2.39-.43-3.62-.48l-1.74-.03Z"/>
    <path class="cls-1" d="M140.17,81.07c-.05.11-.2.02-.25-.03-.05-.06-.04-.16,0-.27.91-1.97,2.38-3.65,4.26-4.77.11-.06.19-.04.25.04.07.1.03.2-.09.27-1.85,1.11-3.3,2.78-4.18,4.76Z"/>
    <path class="cls-1" d="M130.95,83.72c.07.08,0,.2-.05.24-.1.06-.17.03-.26-.06-1.07-1.2-2.47-2.02-4.01-2.46-.08-.02-.1-.18-.07-.24s.11-.11.23-.07c1.2.35,2.28.92,3.25,1.71.34.28.61.57.91.89Z"/>
  </g>
  <g>
    <g>
      <path class="cls-1" d="M9.83,87.05h2.59v-19.91h-2.59v-.15h2.59c1.51,0,3.24-.05,4.91-.05h2.27c4.57,0,6.93,1.59,6.93,4.85,0,2.96-1.99,4.42-4.72,4.79v.43c3.38.21,5.79,1.79,5.79,5.1,0,3.57-2.82,5.15-7.39,5.15h-2.68c-1.9,0-3.61-.06-5.1-.06h-2.59v-.15ZM16.63,67.09v9.69h1.47c2.8,0,4.22-1.08,4.22-4.97,0-3.4-1.03-4.71-4.16-4.71h-1.54ZM18.48,76.95h-1.85v10.15h1.98c3.11,0,4.46-1.11,4.46-4.93,0-4.23-1.73-5.22-4.59-5.22Z"/>
      <path class="cls-1" d="M28.39,87.05h2.42v-14.1h-2.42v-.15h5.61l.37,7.07h.47s0-.58,0-.58c0-1.58.02-6.78,4.16-6.78,2.32,0,3.59,1.64,3.59,3.31,0,1.52-.97,2.6-2.45,2.6-1.22,0-2.11-.74-2.11-1.86,0-.98.65-1.5,1.06-1.85.23-.19.49-.41.49-.77,0-.49-.47-.91-1.3-.91-2.58,0-3.27,3.27-3.27,5.93v8.11h4.15v.15h-10.76v-.15Z"/>
      <path class="cls-1" d="M43.67,80.01c0-4.7,2.34-7.56,7.11-7.56,3.74,0,6.04,1.69,6.04,3.95,0,2.06-1.66,3.02-5.12,4.08l-3.55.97c.42,2.45,1.8,3.72,4.21,3.72,2.73,0,4.34-1.65,4.34-4.28h.14c.07,3.69-1.78,6.63-6.41,6.63s-6.75-3.02-6.75-7.51ZM48.13,81.29l1.81-.52c1.86-.61,2.96-1.28,2.96-4.49,0-2.67-.73-3.61-2.08-3.61-1.8,0-2.8,1.72-2.8,6.3v.73c0,.57.04,1.1.11,1.59Z"/>
      <path class="cls-1" d="M58.6,84.56c0-1.91,1.59-2.83,4.03-4.16l4.91-2.6v-.9c0-1.7,0-4.14-3.3-4.14-1.63,0-2.74.63-2.74,1.27,0,.38.38.46.64.52.55.11,1.82.41,1.82,1.75,0,1.27-1.13,1.96-2.41,1.96-1.46,0-2.43-.88-2.43-2.16,0-1.82,1.99-3.62,6.25-3.62,6.41,0,6.43,4.06,6.43,6.07v4.71c0,1.33,0,2.71.89,2.71.71,0,.68-.83.68-1.29v-3.51h.15v3.72c0,.97,0,2.51-2.17,2.51s-3.23-1.66-3.23-4.02v-.84h-.43c-.01,1.63-.25,4.98-4.9,4.98-2.62,0-4.19-1.09-4.19-2.96ZM64.91,85.72c2.62,0,2.63-2.48,2.63-3.74v-3.98l-1.6.85c-2,1.09-3.16,2.02-3.16,4.12v.3c0,1.51.66,2.45,2.12,2.45Z"/>
      <path class="cls-1" d="M76.75,85.94c-.66-1.04-.67-2.41-.67-3.8v-9.19h-2.4v-.15h.49c3.61,0,5.9-1.66,5.99-4.8h.15v4.8h2.8v.15h-2.8v10.26c0,1.25.03,2.84,1.41,2.84,1.2,0,1.22-1.18,1.22-2.05v-2.82h.15v3.06c0,1,0,3.23-3.07,3.23-1.5,0-2.63-.52-3.27-1.53Z"/>
      <path class="cls-1" d="M83.69,87.05h2.42v-19.91h-2.42v-.15h6.33v5.26c0,1.59-.16,3.56-.32,5.09l.47.04c.05-1.44.51-4.85,4.43-4.85,4.5,0,4.56,4.3,4.56,5.81v5.85c0,.95.09,1.83.84,1.83s.73-.77.73-1.26v-3.59h.15v3.71c0,.74-.02,2.57-2.57,2.57-1.28,0-2.3-.46-2.86-1.44-.55-.95-.57-2.18-.57-3.44v-4.58c0-1.78-.33-3.73-2.21-3.73-2.12,0-2.36,2.41-2.36,3.62v9.3h-6.62v-.15Z"/>
      <path class="cls-1" d="M102.53,80.01c0-4.7,2.34-7.56,7.11-7.56,3.74,0,6.04,1.69,6.04,3.95,0,2.06-1.66,3.02-5.12,4.08l-3.55.97c.42,2.45,1.81,3.72,4.21,3.72,2.73,0,4.35-1.65,4.35-4.28h.14c.07,3.69-1.78,6.63-6.41,6.63s-6.75-3.02-6.75-7.51ZM106.98,81.29l1.81-.52c1.86-.61,2.96-1.28,2.96-4.49,0-2.67-.73-3.61-2.08-3.61-1.8,0-2.8,1.72-2.8,6.3v.73c0,.57.04,1.1.11,1.59Z"/>
    </g>
    <g>
      <path class="cls-1" d="M16.1,90.85h-2.85v7.53h-.29v-7.53h-2.84v-.29h5.98v.29Z"/>
      <path class="cls-1" d="M17.62,93.92c.19-.45.47-.81.84-1.07.37-.26.78-.39,1.22-.39.62,0,1.08.18,1.39.53s.46.88.46,1.6v3.79h-.29v-3.8c0-.62-.13-1.08-.38-1.38-.25-.3-.65-.45-1.19-.45-.5,0-.94.18-1.3.53-.37.36-.62.81-.74,1.38v3.72h-.29v-8.25h.29v3.79Z"/>
      <path class="cls-1" d="M25.45,98.48c-.47,0-.9-.13-1.29-.38-.39-.25-.7-.6-.92-1.04-.22-.44-.33-.93-.33-1.47v-.24c0-.54.11-1.03.32-1.48.21-.45.51-.8.89-1.05.38-.25.79-.38,1.23-.38.65,0,1.18.23,1.59.69.41.46.62,1.07.62,1.82v.31h-4.35v.32c0,.47.1.91.3,1.31.2.4.47.72.82.95.35.23.73.34,1.13.34s.72-.06,1-.19.52-.33.73-.6l.2.14c-.43.63-1.08.94-1.93.94ZM25.34,92.75c-.57,0-1.04.21-1.44.63-.39.42-.62.96-.69,1.61h4.05v-.07c0-.39-.08-.76-.25-1.1-.17-.34-.4-.6-.69-.79-.29-.19-.62-.28-.98-.28Z"/>
      <path class="cls-1" d="M36,94.53h-4v3.84h-.29v-7.82h4.84v.29h-4.55v3.38h4v.3Z"/>
      <path class="cls-1" d="M37.77,90.75c0-.08.03-.15.09-.21.06-.06.13-.09.21-.09s.15.03.21.09.09.13.09.21-.03.15-.09.21c-.06.06-.13.09-.21.09s-.15-.03-.21-.09c-.06-.06-.09-.13-.09-.21ZM38.21,98.37h-.29v-5.81h.29v5.81Z"/>
      <path class="cls-1" d="M40.42,93.92c.19-.45.47-.81.84-1.07.37-.26.78-.39,1.22-.39.62,0,1.08.18,1.39.53.3.35.46.88.46,1.6v3.79h-.29v-3.8c0-.62-.13-1.08-.38-1.38-.25-.3-.65-.45-1.19-.45-.5,0-.93.18-1.3.53-.37.36-.61.81-.74,1.38v3.72h-.29v-5.81h.29v1.35Z"/>
      <path class="cls-1" d="M49.91,98.37c-.07-.25-.11-.6-.11-1.06-.23.37-.54.66-.94.86-.4.2-.85.31-1.35.31-.54,0-.97-.15-1.3-.44-.33-.29-.49-.67-.49-1.14,0-.53.24-.96.72-1.28.48-.32,1.12-.48,1.92-.49h1.43v-.85c0-.49-.15-.86-.46-1.13-.31-.27-.74-.4-1.31-.4-.53,0-.97.14-1.33.41-.35.27-.53.61-.53,1.01h-.29c0-.48.21-.88.62-1.21s.92-.49,1.52-.49,1.12.16,1.49.47c.37.31.56.75.57,1.32v2.77c0,.64.05,1.07.15,1.3v.05h-.33ZM47.52,98.19c.54,0,1.01-.12,1.4-.37.39-.24.69-.58.88-1.02v-1.38h-1.34c-.83,0-1.46.17-1.91.49-.36.27-.54.6-.54,1,0,.35.14.66.42.9.28.25.64.37,1.07.37Z"/>
      <path class="cls-1" d="M52.26,93.92c.19-.45.47-.81.84-1.07.37-.26.78-.39,1.22-.39.62,0,1.08.18,1.39.53.3.35.46.88.46,1.6v3.79h-.29v-3.8c0-.62-.13-1.08-.38-1.38-.25-.3-.65-.45-1.19-.45-.5,0-.93.18-1.3.53-.37.36-.61.81-.74,1.38v3.72h-.29v-5.81h.29v1.35Z"/>
      <path class="cls-1" d="M59.97,98.19c.53,0,.96-.14,1.3-.42.34-.28.53-.67.56-1.16h.29c-.03.56-.25,1.01-.65,1.36s-.91.51-1.5.51c-.73,0-1.3-.26-1.73-.79s-.64-1.24-.64-2.14v-.19c0-.88.21-1.58.64-2.11s1-.79,1.72-.79c.62,0,1.12.18,1.52.55.4.37.61.86.64,1.47h-.29c-.03-.52-.21-.94-.55-1.26s-.78-.47-1.32-.47c-.65,0-1.16.23-1.52.7-.37.47-.55,1.12-.55,1.95v.19c0,.81.19,1.45.56,1.91.37.46.88.7,1.53.7Z"/>
      <path class="cls-1" d="M65.67,98.48c-.47,0-.9-.13-1.29-.38-.39-.25-.7-.6-.92-1.04s-.33-.93-.33-1.47v-.24c0-.54.11-1.03.32-1.48.21-.45.51-.8.89-1.05.38-.25.79-.38,1.23-.38.65,0,1.18.23,1.59.69.41.46.62,1.07.62,1.82v.31h-4.35v.32c0,.47.1.91.3,1.31.2.4.47.72.82.95.35.23.73.34,1.14.34s.72-.06,1-.19.52-.33.73-.6l.2.14c-.43.63-1.08.94-1.93.94ZM65.57,92.75c-.57,0-1.04.21-1.44.63-.39.42-.62.96-.69,1.61h4.05v-.07c0-.39-.08-.76-.25-1.1-.17-.34-.4-.6-.69-.79-.29-.19-.62-.28-.98-.28Z"/>
      <path class="cls-1" d="M76.05,96.04h-3.83l-.87,2.33h-.32l2.93-7.82h.35l2.92,7.82h-.32l-.88-2.33ZM72.33,95.75h3.61l-1.8-4.84-1.81,4.84Z"/>
      <path class="cls-1" d="M80.32,98.19c.53,0,.96-.14,1.3-.42.34-.28.53-.67.56-1.16h.29c-.03.56-.25,1.01-.65,1.36-.41.34-.91.51-1.5.51-.73,0-1.3-.26-1.73-.79s-.64-1.24-.64-2.14v-.19c0-.88.21-1.58.64-2.11s1-.79,1.72-.79c.62,0,1.12.18,1.52.55.4.37.61.86.64,1.47h-.29c-.03-.52-.21-.94-.55-1.26s-.78-.47-1.32-.47c-.65,0-1.16.23-1.52.7-.37.47-.55,1.12-.55,1.95v.19c0,.81.19,1.45.56,1.91.37.46.88.7,1.53.7Z"/>
      <path class="cls-1" d="M87.69,98.37c-.07-.25-.11-.6-.11-1.06-.23.37-.54.66-.94.86-.4.2-.85.31-1.35.31-.54,0-.97-.15-1.3-.44-.33-.29-.49-.67-.49-1.14,0-.53.24-.96.72-1.28s1.12-.48,1.92-.49h1.43v-.85c0-.49-.15-.86-.46-1.13-.31-.27-.74-.4-1.31-.4-.53,0-.97.14-1.33.41-.35.27-.53.61-.53,1.01h-.29c0-.48.21-.88.62-1.21s.92-.49,1.52-.49,1.12.16,1.49.47c.37.31.56.75.57,1.32v2.77c0,.64.05,1.07.15,1.3v.05h-.33ZM85.3,98.19c.54,0,1.01-.12,1.4-.37.39-.24.69-.58.88-1.02v-1.38h-1.34c-.83,0-1.46.17-1.91.49-.36.27-.54.6-.54,1,0,.35.14.66.42.9.28.25.64.37,1.07.37Z"/>
      <path class="cls-1" d="M89.49,95.41c0-.93.19-1.65.58-2.17.39-.52.92-.78,1.6-.78.44,0,.82.1,1.16.29.33.2.61.49.81.88v-3.51h.29v8.25h-.29v-.93c-.2.33-.47.58-.81.76-.34.18-.73.27-1.17.27-.67,0-1.2-.27-1.59-.8-.39-.53-.58-1.26-.58-2.2v-.08ZM89.79,95.52c0,.82.16,1.47.49,1.95.33.48.79.72,1.38.72.48,0,.89-.11,1.23-.32s.59-.53.76-.94v-2.72c-.33-.98-.99-1.46-1.97-1.46-.59,0-1.06.23-1.39.7s-.5,1.16-.5,2.07Z"/>
      <path class="cls-1" d="M97.87,98.48c-.47,0-.9-.13-1.29-.38-.39-.25-.7-.6-.92-1.04s-.33-.93-.33-1.47v-.24c0-.54.11-1.03.32-1.48.21-.45.51-.8.89-1.05.38-.25.79-.38,1.23-.38.65,0,1.18.23,1.59.69.41.46.62,1.07.62,1.82v.31h-4.35v.32c0,.47.1.91.3,1.31.2.4.47.72.82.95s.73.34,1.14.34.72-.06,1-.19.52-.33.73-.6l.2.14c-.43.63-1.08.94-1.93.94ZM97.76,92.75c-.57,0-1.04.21-1.44.63-.39.42-.62.96-.69,1.61h4.05v-.07c0-.39-.08-.76-.25-1.1-.17-.34-.4-.6-.69-.79-.29-.19-.62-.28-.98-.28Z"/>
      <path class="cls-1" d="M105.49,98.37h-.29v-3.9c0-.58-.13-1.02-.38-1.3s-.65-.43-1.21-.43c-.64,0-1.16.28-1.56.84-.24.34-.4.71-.48,1.12v3.67h-.29v-5.81h.29v1.37c.2-.47.48-.84.84-1.09.37-.26.77-.39,1.21-.39.49,0,.88.11,1.19.32s.51.57.61,1.05c.17-.42.45-.75.84-1,.39-.25.82-.37,1.3-.37.63,0,1.09.18,1.4.53.31.35.46.89.46,1.59v3.79h-.29v-3.76c0-.64-.13-1.11-.38-1.41s-.66-.46-1.21-.45c-.71.01-1.26.29-1.67.84-.24.32-.36.62-.39.92v3.86Z"/>
      <path class="cls-1" d="M112.98,97.92l.04-.11,2.01-5.25h.32l-2.6,6.82-.13.32c-.28.68-.74,1.01-1.38,1.01-.21,0-.35-.02-.43-.06v-.28c.11.03.24.05.39.05.3,0,.56-.09.76-.26.2-.18.37-.46.52-.87l.35-.96-2.31-5.78h.32l2.15,5.36Z"/>
    </g>
  </g>
</svg>